<svg width="99" height="36" viewBox="0 0 99 36" fill="none" xmlns="http://www.w3.org/2000/svg">
<rect opacity="0.06" x="14" y="10" width="59" height="21" rx="8" fill="#193052" fill-opacity="0.06"/>
<path d="M14.3979 16.9956C14.3979 12.9883 17.1733 10.1421 21.0815 10.1421C24.8906 10.1421 27.6943 12.9883 27.6943 16.8682C27.6943 19.1338 26.8872 21.2437 24.9048 24.1606L20.2319 31H17.9805L23.7153 22.957C24.1401 22.3623 24.2109 22.249 24.3101 22.0791L24.126 21.9375C23.5737 22.7729 22.0586 23.4385 20.7559 23.4385C17.0884 23.4385 14.3979 20.7056 14.3979 16.9956ZM21.0391 11.813C18.3203 11.813 16.2388 14.022 16.2388 16.8823C16.2388 19.7427 18.3203 21.9517 21.0391 21.9517C23.7578 21.9517 25.8394 19.7427 25.8394 16.8823C25.8394 14.022 23.7578 11.813 21.0391 11.813ZM34.3638 31L43.8086 12.4644V12.3086H32.4805V10.5669H45.791V12.3794L36.4312 31H34.3638ZM62.3979 21.2861V19.6152H64.5645C66.9434 19.6152 68.6567 17.9443 68.6567 15.6221C68.6567 13.3564 67.0283 11.8413 64.6211 11.8413C62.228 11.8413 60.6421 13.2856 60.4014 15.6646H58.4614C58.7446 12.252 61.1377 10.1421 64.7202 10.1421C68.1895 10.1421 70.71 12.3369 70.71 15.3813C70.71 17.8594 69.4497 19.6152 67.2832 20.1816V20.394C69.9736 20.7764 71.5879 22.7163 71.5879 25.5483C71.5879 28.9468 68.7417 31.4248 64.8618 31.4248C60.9819 31.4248 58.249 29.1592 58.0649 25.7749H59.9199C60.1748 28.168 62.1147 29.7256 64.8052 29.7256C67.7788 29.7256 69.6196 28.1396 69.6196 25.5908C69.6196 22.957 67.708 21.2861 64.6919 21.2861H62.3979Z" fill="#32A600"/>
<circle cx="50" cy="29" r="1" fill="#0B0B0B"/>
</svg>
