<svg width="99" height="36" viewBox="0 0 99 36" fill="none" xmlns="http://www.w3.org/2000/svg">
<rect opacity="0.06" x="14" y="10" width="59" height="21" rx="8" fill="#193052" fill-opacity="0.06"/>
<path d="M14.3979 16.9956C14.3979 12.9883 17.1733 10.1421 21.0815 10.1421C24.8906 10.1421 27.6943 12.9883 27.6943 16.8682C27.6943 19.1338 26.8872 21.2437 24.9048 24.1606L20.2319 31H17.9805L23.7153 22.957C24.1401 22.3623 24.2109 22.249 24.3101 22.0791L24.126 21.9375C23.5737 22.7729 22.0586 23.4385 20.7559 23.4385C17.0884 23.4385 14.3979 20.7056 14.3979 16.9956ZM21.0391 11.813C18.3203 11.813 16.2388 14.022 16.2388 16.8823C16.2388 19.7427 18.3203 21.9517 21.0391 21.9517C23.7578 21.9517 25.8394 19.7427 25.8394 16.8823C25.8394 14.022 23.7578 11.813 21.0391 11.813ZM38.8384 31.4106C35.2134 31.4106 32.6221 29.1309 32.3813 25.7183H34.2363C34.4629 28.0688 36.4312 29.7114 39.0083 29.7114C41.812 29.7114 43.667 27.6865 43.667 24.6562C43.667 21.5977 41.7837 19.5161 39.0083 19.5161C37.04 19.5161 35.3833 20.4365 34.5479 21.98H32.7495L33.8115 10.5669H44.4883V12.3086H35.3267L34.7178 19.5303H34.9302C35.9922 18.3408 37.4082 17.7461 39.1641 17.7461C42.9448 17.7461 45.5928 20.5781 45.5928 24.6138C45.5928 28.6636 42.8599 31.4106 38.8384 31.4106ZM58.1782 16.9956C58.1782 12.9883 60.9536 10.1421 64.8618 10.1421C68.6709 10.1421 71.4746 12.9883 71.4746 16.8682C71.4746 19.1338 70.6675 21.2437 68.6851 24.1606L64.0122 31H61.7607L67.4956 22.957C67.9204 22.3623 67.9912 22.249 68.0903 22.0791L67.9062 21.9375C67.354 22.7729 65.8389 23.4385 64.5361 23.4385C60.8687 23.4385 58.1782 20.7056 58.1782 16.9956ZM64.8193 11.813C62.1006 11.813 60.019 14.022 60.019 16.8823C60.019 19.7427 62.1006 21.9517 64.8193 21.9517C67.5381 21.9517 69.6196 19.7427 69.6196 16.8823C69.6196 14.022 67.5381 11.813 64.8193 11.813Z" fill="#E48100"/>
<circle cx="50" cy="29" r="1" fill="#0B0B0B"/>
</svg>
