<svg width="99" height="36" viewBox="0 0 99 36" fill="none" xmlns="http://www.w3.org/2000/svg">
<rect opacity="0.06" x="14" y="10" width="59" height="21" rx="8" fill="#193052" fill-opacity="0.06"/>
<path d="M21.1948 31.4673C17.1592 31.4673 14.313 29.0176 14.313 25.5483C14.313 22.9995 15.9131 20.918 18.3628 20.3232V20.1108C16.3804 19.5161 15.1343 17.7461 15.1343 15.5088C15.1343 12.3369 17.6548 10.0996 21.1948 10.0996C24.7349 10.0996 27.2554 12.3369 27.2554 15.5088C27.2554 17.7603 26.0376 19.502 24.0127 20.1108V20.3232C26.4058 20.8047 28.0767 22.957 28.0767 25.5483C28.0767 29.0176 25.2305 31.4673 21.1948 31.4673ZM21.1948 19.417C23.7153 19.417 25.3721 17.916 25.3721 15.6504C25.3721 13.3848 23.7153 11.8838 21.1948 11.8838C18.6743 11.8838 17.0176 13.3848 17.0176 15.6504C17.0176 17.916 18.6743 19.417 21.1948 19.417ZM21.1948 29.7256C24.1401 29.7256 26.1792 27.9697 26.1792 25.4351C26.1792 22.9004 24.1401 21.1445 21.1948 21.1445C18.2495 21.1445 16.2104 22.9004 16.2104 25.4351C16.2104 27.9697 18.2495 29.7256 21.1948 29.7256ZM32.3247 16.9956C32.3247 12.9883 35.1001 10.1421 39.0083 10.1421C42.8174 10.1421 45.6211 12.9883 45.6211 16.8682C45.6211 19.1338 44.814 21.2437 42.8315 24.1606L38.1587 31H35.9072L41.6421 22.957C42.0669 22.3623 42.1377 22.249 42.2368 22.0791L42.0527 21.9375C41.5005 22.7729 39.9854 23.4385 38.6826 23.4385C35.0151 23.4385 32.3247 20.7056 32.3247 16.9956ZM38.9658 11.813C36.2471 11.813 34.1655 14.022 34.1655 16.8823C34.1655 19.7427 36.2471 21.9517 38.9658 21.9517C41.6846 21.9517 43.7661 19.7427 43.7661 16.8823C43.7661 14.022 41.6846 11.813 38.9658 11.813ZM72.5225 31H58.4473V29.3291H64.6636V12.875H64.4512L58.3906 16.7832V14.6309L64.6777 10.5669H66.5894V29.3291H72.5225V31Z" fill="#33A1DB"/>
<circle cx="50" cy="29" r="1" fill="#0B0B0B"/>
</svg>
