<svg width="99" height="36" viewBox="0 0 99 36" fill="none" xmlns="http://www.w3.org/2000/svg">
<g clip-path="url(#clip0_2557_556)">
<rect opacity="0.06" y="10" width="76" height="21" rx="8" fill="#193052" fill-opacity="0.06"/>
<path d="M15.0788 31H1.00361V29.3291H7.21992V12.875H7.00752L0.946972 16.7832V14.6309L7.23408 10.5669H9.1457V29.3291H15.0788V31ZM24.7874 31.4814C20.5252 31.4814 18.1888 27.7007 18.1888 20.7905C18.1888 13.8804 20.5252 10.0996 24.7874 10.0996C29.0496 10.0996 31.386 13.8804 31.386 20.7905C31.386 27.7007 29.0496 31.4814 24.7874 31.4814ZM20.1287 20.7905C20.1287 21.895 20.1854 22.9146 20.2986 23.8208L28.9363 15.9194C28.2425 13.2007 26.8548 11.7988 24.7874 11.7988C21.7288 11.7988 20.1287 14.8857 20.1287 20.7905ZM24.7874 29.7822C27.846 29.7822 29.4461 26.6953 29.4461 20.7905C29.4461 19.6577 29.3895 18.6382 29.2762 17.7178L20.6526 25.7183C21.3465 28.3945 22.7342 29.7822 24.7874 29.7822ZM38.0271 31L47.472 12.4644V12.3086H36.1438V10.5669H49.4544V12.3794L40.0945 31H38.0271ZM63.8807 31L73.3255 12.4644V12.3086H61.9974V10.5669H75.3079V12.3794L65.948 31H63.8807Z" fill="#5C26A3"/>
<circle cx="50" cy="29" r="1" fill="#0B0B0B"/>
</g>
<defs>
<clipPath id="clip0_2557_556">
<rect width="99" height="36" fill="white"/>
</clipPath>
</defs>
</svg>
