<svg width="99" height="36" viewBox="0 0 99 36" fill="none" xmlns="http://www.w3.org/2000/svg">
<rect opacity="0.06" x="12" y="10" width="58" height="21" rx="8" fill="#193052" fill-opacity="0.06"/>
<path d="M12.3979 16.9956C12.3979 12.9883 15.1733 10.1421 19.0815 10.1421C22.8906 10.1421 25.6943 12.9883 25.6943 16.8682C25.6943 19.1338 24.8872 21.2437 22.9048 24.1606L18.2319 31H15.9805L21.7153 22.957C22.1401 22.3623 22.2109 22.249 22.3101 22.0791L22.126 21.9375C21.5737 22.7729 20.0586 23.4385 18.7559 23.4385C15.0884 23.4385 12.3979 20.7056 12.3979 16.9956ZM19.0391 11.813C16.3203 11.813 14.2388 14.022 14.2388 16.8823C14.2388 19.7427 16.3203 21.9517 19.0391 21.9517C21.7578 21.9517 23.8394 19.7427 23.8394 16.8823C23.8394 14.022 21.7578 11.813 19.0391 11.813ZM44.6689 31H30.5938V29.3291H36.8101V12.875H36.5977L30.5371 16.7832V14.6309L36.8242 10.5669H38.7358V29.3291H44.6689V31ZM56.1782 16.9956C56.1782 12.9883 58.9536 10.1421 62.8618 10.1421C66.6709 10.1421 69.4746 12.9883 69.4746 16.8682C69.4746 19.1338 68.6675 21.2437 66.6851 24.1606L62.0122 31H59.7607L65.4956 22.957C65.9204 22.3623 65.9912 22.249 66.0903 22.0791L65.9062 21.9375C65.354 22.7729 63.8389 23.4385 62.5361 23.4385C58.8687 23.4385 56.1782 20.7056 56.1782 16.9956ZM62.8193 11.813C60.1006 11.813 58.019 14.022 58.019 16.8823C58.019 19.7427 60.1006 21.9517 62.8193 21.9517C65.5381 21.9517 67.6196 19.7427 67.6196 16.8823C67.6196 14.022 65.5381 11.813 62.8193 11.813Z" fill="#EB168F"/>
<circle cx="50" cy="29" r="1" fill="#0B0B0B"/>
</svg>
