<svg width="97" height="97" viewBox="0 0 97 97" fill="none" xmlns="http://www.w3.org/2000/svg">
<g clip-path="url(#clip0_2559_745)">
<path d="M40.5388 32.121C43.9578 28.7023 49.0524 29.2352 52.1785 32.3612L63.7107 43.8925C66.8366 47.0186 67.3686 52.1132 63.95 55.5321C62.0047 57.477 59.2091 57.7893 57.0115 57.5106C55.1273 57.2716 53.1415 56.5399 51.5906 55.3524L46.3386 60.6054C46.2225 60.7216 46.0866 61.0344 46.2605 61.4569C47.2003 63.7402 48.3012 66.8583 48.7107 69.9228C49.1024 72.8548 48.9669 76.5611 46.4031 79.1249C42.201 83.3269 35.3896 83.3013 31.1892 79.1015C31.0325 78.9447 30.8821 78.7829 30.7371 78.619C30.6553 78.5542 30.5743 78.4865 30.4988 78.411L26.6648 74.5771L11.1209 90.121C9.94938 91.2925 8.05027 91.2923 6.87868 90.121C5.70711 88.9494 5.70711 87.0504 6.87868 85.8788L22.4226 70.3349L18.3191 66.2314C18.2563 66.1681 18.1977 66.1019 18.1424 66.0341C18.011 65.9151 17.8807 65.793 17.7537 65.6659C13.5534 61.4656 13.5272 54.6533 17.7293 50.4511C20.1354 48.045 23.6437 47.8162 26.4119 48.0653C29.316 48.3268 32.2927 49.1964 34.4715 49.9257C34.929 50.0788 35.2627 49.9368 35.3992 49.8007L40.7185 44.4814C39.5308 42.9303 38.8004 40.944 38.5613 39.0595C38.2826 36.8619 38.5939 34.0663 40.5388 32.121ZM48.3601 36.1796C47.0344 34.8539 45.3725 34.9254 44.3582 35.9394C44.0869 36.2106 43.7422 36.9952 43.9177 38.3798C44.0872 39.7152 44.6706 40.9071 45.2713 41.5077C46.9361 43.1728 46.9526 45.8828 45.2752 47.5605L39.2175 53.6181C37.4368 55.3989 34.8791 55.7569 32.7576 55.0468C30.6877 54.354 28.191 53.647 25.9275 53.4433C23.5281 53.2273 22.1731 53.646 21.5486 54.2704C19.4705 56.3487 19.4654 59.7409 21.572 61.8476C21.6948 61.9703 21.8232 62.0865 21.9558 62.1962C22.1424 62.3506 22.3026 62.5241 22.4363 62.7108L33.9822 74.2567C34.1696 74.3823 34.3433 74.5331 34.4988 74.7079L34.5955 74.8222L34.7937 75.0565C34.8623 75.1333 34.9339 75.2084 35.0076 75.2821C37.1143 77.3888 40.5064 77.3847 42.5847 75.3065C43.2863 74.605 43.6941 73.1517 43.3582 70.6376C43.0399 68.2559 42.1425 65.64 41.2664 63.5116C40.3751 61.3461 40.6635 58.6418 42.5193 56.786L48.5105 50.7958C50.1881 49.1184 52.8981 49.1351 54.5632 50.7997L54.6824 50.913C55.313 51.4726 56.4392 51.9944 57.6912 52.1532C59.0759 52.3288 59.8613 51.9851 60.1326 51.7138C61.1464 50.6996 61.2175 49.0375 59.8924 47.7118L48.3601 36.1796Z" fill="white"/>
</g>
<defs>
<clipPath id="clip0_2559_745">
<rect width="97" height="97" fill="white"/>
</clipPath>
</defs>
</svg>
