<svg width="97" height="97" viewBox="0 0 97 97" fill="none" xmlns="http://www.w3.org/2000/svg">
<g clip-path="url(#clip0_2559_754)">
<path d="M64.5775 86.3201L51.8787 73.6215C50.7071 72.4499 50.7071 70.5504 51.8787 69.3789C53.0503 68.2073 54.9497 68.2073 56.1213 69.3789L68.8201 82.0775C72.7254 85.9824 79.0571 85.9826 82.9623 82.0775C86.8674 78.1724 86.8672 71.8406 82.9623 67.9354L54.8787 39.8518C53.7071 38.6802 53.7071 36.7807 54.8787 35.6091C56.0503 34.4376 57.9498 34.4376 59.1213 35.6091L87.2049 63.6927C93.453 69.9411 93.4532 80.0719 87.2049 86.3201C80.9566 92.5684 70.8259 92.5682 64.5775 86.3201Z" fill="white"/>
<path d="M49.5 47V35.5C49.5 32.7386 51.7386 30.5 54.5 30.5H66C67.6569 30.5 69 31.8431 69 33.5C69 35.1569 67.6569 36.5 66 36.5H55.5V47C55.5 48.6569 54.1569 50 52.5 50C50.8431 50 49.5 48.6569 49.5 47Z" fill="white"/>
</g>
<defs>
<clipPath id="clip0_2559_754">
<rect width="97" height="97" fill="white"/>
</clipPath>
</defs>
</svg>
