<svg width="320" height="121" viewBox="0 0 320 121" fill="none" xmlns="http://www.w3.org/2000/svg">
<path d="M10.3242 32.7695L10.3242 31.2891L8 31.2891L8 30.7656L13.6367 30.7656L13.6367 32.6016C13.6367 33.6758 13 34.3555 11.9883 34.3555C11.2461 34.3555 10.6406 33.9375 10.4453 33.2852L8 34.4414L8 33.8398L10.3242 32.7695ZM13.1602 31.2891L10.7852 31.2891L10.7852 32.5273C10.7852 33.3633 11.2031 33.8242 11.9648 33.8242C12.7305 33.8242 13.1602 33.3711 13.1602 32.5664L13.1602 31.2891ZM8 38.9922L9.72656 38.4414L9.72656 36.3945L8 35.8437L8 35.2969L13.6367 37.1562L13.6367 37.6797L8 39.5391L8 38.9922ZM12.9375 37.4141L10.1875 36.5391L10.1875 38.2969L12.9375 37.4219L12.9375 37.4141ZM13.6367 40.5703L13.6367 42.0664C13.6367 43.668 12.6992 44.4687 10.8164 44.4687C8.9375 44.4687 8 43.668 8 42.0664L8 40.5703L13.6367 40.5703ZM13.1523 41.1055L8.48437 41.1055L8.48437 42.0352C8.48437 43.3125 9.23437 43.9219 10.8164 43.9219C12.3984 43.9219 13.1523 43.3125 13.1523 42.0352L13.1523 41.1055ZM8 48.707L8 45.9102L8.46094 45.9102L8.46094 47.043L13.1758 47.043L13.1758 45.9102L13.6367 45.9102L13.6367 48.707L13.1758 48.707L13.1758 47.5742L8.46094 47.5742L8.46094 48.707L8 48.707ZM10.3516 54.2812C8.79687 54.2812 7.88281 53.5078 7.88281 52.2539C7.88281 51 8.79687 50.2266 10.3516 50.2266L11.2852 50.2266C12.8398 50.2266 13.7539 51 13.7539 52.2539C13.7539 53.5078 12.8398 54.2812 11.2852 54.2812L10.3516 54.2812ZM8.37891 52.2539C8.37891 53.1758 9.10156 53.7461 10.3516 53.7461L11.2852 53.7461C12.5352 53.7461 13.2578 53.1758 13.2578 52.2539C13.2578 51.332 12.5352 50.7617 11.2852 50.7617L10.3516 50.7617C9.10156 50.7617 8.37891 51.332 8.37891 52.2539ZM8 57.1992C8 56.8437 8.29297 56.5508 8.64844 56.5508C9.00391 56.5508 9.29687 56.8437 9.29687 57.1992C9.29687 57.5547 9.00391 57.8477 8.64844 57.8477C8.29297 57.8477 8 57.5547 8 57.1992ZM13.6367 60.5156L13.6367 62.3203C13.6367 63.3789 12.9336 64.0859 11.8828 64.0859C10.832 64.0859 10.1289 63.3789 10.1289 62.3203L10.1289 61.0508L8 61.0508L8 60.5156L13.6367 60.5156ZM13.1602 61.0508L10.6055 61.0508L10.6055 62.1914C10.6055 63.0469 11.0742 63.543 11.8828 63.543C12.6914 63.543 13.1602 63.0469 13.1602 62.1914L13.1602 61.0508ZM8 68.4883L8 65.6914L8.46094 65.6914L8.46094 66.8242L13.1758 66.8242L13.1758 65.6914L13.6367 65.6914L13.6367 68.4883L13.1758 68.4883L13.1758 67.3555L8.46094 67.3555L8.46094 68.4883L8 68.4883ZM8.48437 73.75L8 73.75L8 70.5078L13.6367 70.5078L13.6367 73.75L13.1523 73.75L13.1523 71.043L11.125 71.043L11.125 73.6055L10.6484 73.6055L10.6484 71.043L8.48437 71.043L8.48437 73.75Z" fill="#C8CCDA"/>
<path d="M306.379 32.6016C306.379 33.418 306.844 33.9336 307.605 33.957L307.605 34.4922C306.602 34.4922 305.883 33.7031 305.883 32.6016C305.883 31.3047 306.785 30.5547 308.352 30.5547L309.285 30.5547C310.852 30.5547 311.754 31.3047 311.754 32.6016C311.754 33.7461 311.055 34.4687 309.914 34.4961L309.914 33.9609C310.715 33.9297 311.258 33.3789 311.258 32.6016C311.258 31.6094 310.578 31.0898 309.285 31.0898L308.352 31.0898C307.059 31.0898 306.379 31.6094 306.379 32.6016ZM308.352 39.4453C306.797 39.4453 305.883 38.6719 305.883 37.418C305.883 36.1641 306.797 35.3906 308.352 35.3906L309.285 35.3906C310.84 35.3906 311.754 36.1641 311.754 37.418C311.754 38.6719 310.84 39.4453 309.285 39.4453L308.352 39.4453ZM306.379 37.418C306.379 38.3398 307.102 38.9102 308.352 38.9102L309.285 38.9102C310.535 38.9102 311.258 38.3398 311.258 37.418C311.258 36.4961 310.535 35.9258 309.285 35.9258L308.352 35.9258C307.102 35.9258 306.379 36.4961 306.379 37.418ZM311.637 40.7344L311.637 42.5391C311.637 43.5977 310.934 44.3047 309.883 44.3047C308.832 44.3047 308.129 43.5977 308.129 42.5391L308.129 41.2695L306 41.2695L306 40.7344L311.637 40.7344ZM311.16 41.2695L308.605 41.2695L308.605 42.4102C308.605 43.2656 309.074 43.7617 309.883 43.7617C310.691 43.7617 311.16 43.2656 311.16 42.4102L311.16 41.2695ZM306 47.5742L306 47.043L308.437 47.043L311.637 45.1367L311.637 45.75L308.98 47.2852L308.98 47.332L311.637 48.8672L311.637 49.4805L308.437 47.5742L306 47.5742ZM308.324 52.5508L308.324 51.0703L306 51.0703L306 50.5469L311.637 50.5469L311.637 52.3828C311.637 53.457 311 54.1367 309.988 54.1367C309.246 54.1367 308.641 53.7187 308.445 53.0664L306 54.2227L306 53.6211L308.324 52.5508ZM311.16 51.0703L308.785 51.0703L308.785 52.3086C308.785 53.1445 309.203 53.6055 309.965 53.6055C310.73 53.6055 311.16 53.1523 311.16 52.3477L311.16 51.0703ZM306 58.5977L306 55.8008L306.461 55.8008L306.461 56.9336L311.176 56.9336L311.176 55.8008L311.637 55.8008L311.637 58.5977L311.176 58.5977L311.176 57.4648L306.461 57.4648L306.461 58.5977L306 58.5977ZM307.672 63.5937L308.332 63.5937L308.332 62.2031L308.809 62.2031L308.809 64.1289L307.598 64.1289C306.594 64.1289 305.883 63.3437 305.883 62.2422C305.883 60.9453 306.785 60.1953 308.352 60.1953L309.285 60.1953C310.852 60.1953 311.754 60.9453 311.754 62.2422C311.754 63.3867 311.055 64.1055 309.914 64.1328L309.914 63.5977C310.715 63.5664 311.258 63.0195 311.258 62.2422C311.258 61.25 310.578 60.7305 309.285 60.7305L308.352 60.7305C307.059 60.7305 306.379 61.25 306.379 62.2422C306.379 63.0742 306.875 63.5937 307.672 63.5937ZM306 68.9141L306 68.3789L308.645 68.3789L308.645 65.8008L306 65.8008L306 65.2656L311.637 65.2656L311.637 65.8008L309.129 65.8008L309.129 68.3789L311.637 68.3789L311.637 68.9141L306 68.9141ZM306 72.3008L306 71.7695L311.152 71.7695L311.152 70.0352L311.637 70.0352L311.637 74.0352L311.152 74.0352L311.152 72.3008L306 72.3008ZM310.102 80.2109C311.059 80.2109 311.754 80.918 311.754 81.8867C311.754 82.875 311.121 83.5547 310.199 83.5547C309.625 83.5547 309.187 83.3125 308.176 82.4336L306.547 81.0234L306.484 81.0234L306.484 83.6484L306 83.6484L306 80.2344L306.34 80.2344L308.598 82.168C309.414 82.8594 309.715 83.0195 310.191 83.0195C310.855 83.0195 311.285 82.5703 311.285 81.875C311.285 81.1875 310.82 80.7383 310.102 80.7383L310.078 80.7383L310.078 80.2109L310.102 80.2109ZM305.867 86.875C305.867 85.6992 306.91 85.0547 308.816 85.0547C310.723 85.0547 311.766 85.6992 311.766 86.875C311.766 88.0508 310.723 88.6953 308.816 88.6953C306.91 88.6953 305.867 88.0508 305.867 86.875ZM308.816 85.5898C308.512 85.5898 308.23 85.6055 307.98 85.6367L310.16 88.0195C310.91 87.8281 311.297 87.4453 311.297 86.875C311.297 86.0312 310.445 85.5898 308.816 85.5898ZM306.336 86.875C306.336 87.7187 307.187 88.1602 308.816 88.1602C309.129 88.1602 309.41 88.1445 309.664 88.1133L307.457 85.7344C306.719 85.9258 306.336 86.3086 306.336 86.875ZM310.102 90.1016C311.059 90.1016 311.754 90.8086 311.754 91.7773C311.754 92.7656 311.121 93.4453 310.199 93.4453C309.625 93.4453 309.187 93.2031 308.176 92.3242L306.547 90.9141L306.484 90.9141L306.484 93.5391L306 93.5391L306 90.125L306.34 90.125L308.598 92.0586C309.414 92.75 309.715 92.9102 310.191 92.9102C310.855 92.9102 311.285 92.4609 311.285 91.7656C311.285 91.0781 310.82 90.6289 310.102 90.6289L310.078 90.6289L310.078 90.1016L310.102 90.1016ZM307.773 98.6016C306.668 98.6016 305.883 97.8359 305.883 96.7578C305.883 95.707 306.668 94.9336 307.738 94.9336C308.387 94.9336 308.973 95.1523 309.75 95.6836L311.637 96.9727L311.637 97.5937L309.418 96.0117C309.168 95.8398 309.223 95.875 309.176 95.8516L309.137 95.9023C309.363 96.0547 309.551 96.4844 309.551 96.8477C309.551 97.8594 308.797 98.6016 307.773 98.6016ZM306.344 96.7695C306.344 97.5195 306.953 98.0937 307.742 98.0937C308.531 98.0937 309.141 97.5195 309.141 96.7695C309.141 96.0195 308.531 95.4453 307.742 95.4453C306.953 95.4453 306.344 96.0195 306.344 96.7695ZM297 34.0469L298.727 33.4961L298.727 31.4492L297 30.8984L297 30.3516L302.637 32.2109L302.637 32.7344L297 34.5937L297 34.0469ZM301.937 32.4687L299.187 31.5937L299.187 33.3516L301.937 32.4766L301.937 32.4687ZM299.324 37.7148L299.324 36.2344L297 36.2344L297 35.7109L302.637 35.7109L302.637 37.5469C302.637 38.6211 302 39.3008 300.988 39.3008C300.246 39.3008 299.641 38.8828 299.445 38.2305L297 39.3867L297 38.7852L299.324 37.7148ZM302.16 36.2344L299.785 36.2344L299.785 37.4727C299.785 38.3086 300.203 38.7695 300.965 38.7695C301.73 38.7695 302.16 38.3164 302.16 37.5117L302.16 36.2344ZM297 42.6289L297 42.0977L302.152 42.0977L302.152 40.3633L302.637 40.3633L302.637 44.3633L302.152 44.3633L302.152 42.6289L297 42.6289ZM297 47.3711L297 45.6328L302.637 45.6328L302.637 47.3672C302.637 48.3906 302.117 49.0039 301.246 49.0039C300.617 49.0039 300.109 48.6133 300.004 48.0508L299.953 48.0508C299.867 48.8125 299.324 49.293 298.559 49.293C297.574 49.293 297 48.5859 297 47.3711ZM302.164 46.168L300.152 46.168L300.152 47.1367C300.152 48.0039 300.504 48.4648 301.16 48.4648C301.797 48.4648 302.164 48.0273 302.164 47.2656L302.164 46.168ZM297.473 46.168L297.473 47.2969C297.473 48.2383 297.863 48.7461 298.586 48.7461C299.309 48.7461 299.687 48.2383 299.687 47.2695L299.687 46.168L297.473 46.168ZM299.324 52.5508L299.324 51.0703L297 51.0703L297 50.5469L302.637 50.5469L302.637 52.3828C302.637 53.457 302 54.1367 300.988 54.1367C300.246 54.1367 299.641 53.7187 299.445 53.0664L297 54.2227L297 53.6211L299.324 52.5508ZM302.16 51.0703L299.785 51.0703L299.785 52.3086C299.785 53.1445 300.203 53.6055 300.965 53.6055C301.73 53.6055 302.16 53.1523 302.16 52.3477L302.16 51.0703ZM297 58.7734L298.727 58.2227L298.727 56.1758L297 55.625L297 55.0781L302.637 56.9375L302.637 57.4609L297 59.3203L297 58.7734ZM301.937 57.1953L299.187 56.3203L299.187 58.0781L301.937 57.2031L301.937 57.1953ZM297 63.543L297 60.7461L297.461 60.7461L297.461 61.8789L302.176 61.8789L302.176 60.7461L302.637 60.7461L302.637 63.543L302.176 63.543L302.176 62.4102L297.461 62.4102L297.461 63.543L297 63.543ZM297 65.75L297 65.25L302.637 65.25L302.637 65.793L297.957 68.3789L297.957 68.4297L302.637 68.4297L302.637 68.9297L297 68.9297L297 68.3984L301.684 65.8008L301.684 65.75L297 65.75Z" fill="#C8CCDA"/>
</svg>
